<svg width="330" height="180" viewBox="0 0 330 180" fill="none" xmlns="http://www.w3.org/2000/svg">
<path d="M72.5059 161C72.5059 161 72.5059 152.914 72.5059 136.742C72.5059 136.742 50.0645 136.742 5.18164 136.742C5.18164 136.742 5.18164 132.699 5.18164 124.613C5.18164 124.613 26.7734 92.416 69.957 28.0215C69.957 28.0215 75.1719 28.0215 85.6016 28.0215C85.6016 28.0215 85.6016 60.2188 85.6016 124.613C85.6016 124.613 89.6738 124.613 97.8184 124.613C97.8184 124.613 97.8184 128.656 97.8184 136.742C97.8184 136.742 93.7461 136.742 85.6016 136.742C85.6016 136.742 85.6016 144.828 85.6016 161C85.6016 161 81.2363 161 72.5059 161ZM72.5059 124.613C72.5059 124.613 72.5059 98.5098 72.5059 46.3027C72.5059 46.3027 55.1621 72.4062 20.4746 124.613C20.4746 124.613 37.8184 124.613 72.5059 124.613Z" fill="white"/>
<path d="M299.506 161C299.506 161 299.506 152.914 299.506 136.742C299.506 136.742 277.064 136.742 232.182 136.742C232.182 136.742 232.182 132.699 232.182 124.613C232.182 124.613 253.773 92.416 296.957 28.0215C296.957 28.0215 302.172 28.0215 312.602 28.0215C312.602 28.0215 312.602 60.2188 312.602 124.613C312.602 124.613 316.674 124.613 324.818 124.613C324.818 124.613 324.818 128.656 324.818 136.742C324.818 136.742 320.746 136.742 312.602 136.742C312.602 136.742 312.602 144.828 312.602 161C312.602 161 308.236 161 299.506 161ZM299.506 124.613C299.506 124.613 299.506 98.5098 299.506 46.3027C299.506 46.3027 282.162 72.4062 247.475 124.613C247.475 124.613 264.818 124.613 299.506 124.613Z" fill="white"/>
<mask id="path-3-inside-1_704_14325" fill="white">
<path fill-rule="evenodd" clip-rule="evenodd" d="M174.014 138.925C173.895 139.807 174.042 140.703 174.438 141.502C174.834 142.3 175.46 142.965 176.238 143.412C177.015 143.859 177.909 144.069 178.807 144.014C179.705 143.959 180.566 143.643 181.282 143.105C181.999 142.567 182.538 141.831 182.831 140.991C183.125 140.15 183.16 139.243 182.933 138.382C182.705 137.522 182.225 136.748 181.552 136.157C180.88 135.566 180.046 135.185 179.155 135.063C178.56 134.981 177.956 135.016 177.375 135.166C176.794 135.317 176.25 135.579 175.772 135.938C175.294 136.296 174.893 136.745 174.591 137.258C174.289 137.771 174.093 138.337 174.014 138.925ZM171.208 138.475C171.414 137.058 172.04 135.732 173.007 134.666C173.973 133.599 175.237 132.839 176.64 132.48C178.042 132.122 179.521 132.182 180.889 132.652C182.257 133.122 183.454 133.981 184.33 135.122C185.205 136.263 185.719 137.635 185.808 139.064C185.897 140.493 185.557 141.917 184.829 143.155C184.102 144.393 183.02 145.392 181.72 146.024C180.421 146.656 178.961 146.894 177.524 146.708C176.56 146.584 175.631 146.271 174.79 145.788C173.949 145.305 173.213 144.663 172.626 143.897C172.038 143.131 171.61 142.257 171.367 141.326C171.123 140.396 171.069 139.427 171.208 138.475ZM178.802 73.5977C177.267 73.5359 175.748 73.9253 174.437 74.7167C173.126 75.5081 172.081 76.6659 171.435 78.0439C170.79 79.4218 170.572 80.9581 170.809 82.4586C171.046 83.959 171.728 85.3563 172.768 86.4738C173.808 87.5914 175.16 88.379 176.653 88.7373C178.146 89.0955 179.713 89.0082 181.156 88.4865C182.599 87.9647 183.852 87.0319 184.759 85.806C185.666 84.58 186.184 83.1158 186.25 81.5985C186.329 79.5629 185.591 77.5788 184.195 76.0797C182.8 74.5806 180.861 73.6883 178.802 73.5977ZM194.872 134.366C194.627 136.14 194.919 137.946 195.712 139.555C196.505 141.164 197.764 142.505 199.328 143.407C200.893 144.309 202.693 144.732 204.5 144.622C206.308 144.512 208.042 143.875 209.483 142.79C210.924 141.705 212.007 140.223 212.595 138.529C213.182 136.836 213.249 135.008 212.785 133.278C212.322 131.547 211.35 129.991 209.991 128.807C208.633 127.623 206.949 126.864 205.154 126.627C202.753 126.308 200.322 126.944 198.395 128.395C196.468 129.846 195.201 131.993 194.872 134.366ZM151.246 134.366C151.088 135.504 151.275 136.662 151.784 137.695C152.292 138.728 153.099 139.588 154.102 140.168C155.105 140.747 156.259 141.02 157.419 140.951C158.578 140.883 159.691 140.476 160.617 139.782C161.543 139.088 162.24 138.138 162.62 137.053C162.999 135.967 163.045 134.795 162.751 133.684C162.457 132.573 161.837 131.573 160.968 130.81C160.099 130.048 159.021 129.557 157.87 129.4C157.105 129.296 156.327 129.341 155.58 129.534C154.833 129.728 154.132 130.064 153.517 130.526C152.901 130.987 152.384 131.563 151.994 132.222C151.605 132.881 151.35 133.61 151.246 134.366ZM136.557 124.652C136.432 125.602 136.597 126.567 137.029 127.425C137.461 128.283 138.14 128.994 138.982 129.47C139.824 129.945 140.789 130.162 141.756 130.094C142.723 130.025 143.647 129.675 144.412 129.086C145.177 128.498 145.748 127.698 146.052 126.788C146.356 125.878 146.38 124.9 146.121 123.977C145.861 123.054 145.33 122.227 144.595 121.603C143.86 120.979 142.954 120.584 141.991 120.47C140.708 120.296 139.407 120.633 138.375 121.406C137.342 122.179 136.662 123.325 136.483 124.594L136.557 124.652ZM131.166 115.939C131.946 116.049 132.741 115.927 133.45 115.588C134.159 115.249 134.75 114.709 135.148 114.036C135.546 113.364 135.732 112.59 135.682 111.813C135.633 111.036 135.351 110.291 134.871 109.673C134.392 109.055 133.738 108.592 132.991 108.343C132.245 108.094 131.44 108.071 130.68 108.276C129.92 108.481 129.239 108.905 128.724 109.494C128.209 110.083 127.883 110.81 127.787 111.583C127.665 112.601 127.95 113.626 128.581 114.44C129.212 115.253 130.139 115.791 131.166 115.939ZM127.111 95.3204C126.55 95.2453 125.979 95.3363 125.471 95.5818C124.962 95.8273 124.538 96.2163 124.253 96.6997C123.968 97.1831 123.834 97.7393 123.868 98.2979C123.902 98.8565 124.103 99.3925 124.446 99.8383C124.788 100.284 125.256 100.62 125.791 100.802C126.326 100.985 126.904 101.007 127.452 100.866C128 100.724 128.493 100.425 128.869 100.007C129.245 99.5884 129.487 99.0692 129.565 98.5149C129.65 97.7727 129.442 97.0267 128.985 96.4318C128.529 95.8369 127.857 95.4389 127.111 95.3204ZM184.707 158.978C190.12 159.483 195.57 159.483 200.983 158.978L206.77 158.223L201.1 159.53C195.658 160.616 190.111 161.103 184.56 160.982C175.846 160.604 167.257 158.788 159.148 155.609C148.449 151.467 138.887 144.891 131.239 136.413C121.983 126.322 115.699 113.919 113.069 100.548C110.146 85.1025 113.27 69.1364 121.809 55.8828C126.365 48.7746 132.32 42.6439 139.32 37.8547C146.32 33.0656 154.221 29.7155 162.556 28.0034C171.37 26.2688 180.486 26.7895 189.039 29.5164C197.593 32.2432 205.299 37.0856 211.427 43.5839C217.514 50.2014 221.809 58.2335 223.912 66.9328C224.902 71.368 225.219 75.9241 224.853 80.4514C224.455 84.9589 223.319 89.3725 221.489 93.5198C214.379 110.073 196.341 121.051 178.714 118.335C170.111 117.03 162.325 112.559 156.916 105.819C155.557 104.267 154.398 102.555 153.464 100.722C152.409 98.9831 151.608 97.106 151.084 95.1461L150.159 92.242V92.0678C150.159 91.8209 150.159 92.3582 150.041 91.487V91.1675V90.5141L149.894 89.2072L149.615 86.5936L149.644 83.2974C149.993 79.4057 151.173 75.6314 153.108 72.2245C155.043 68.8176 157.687 65.8558 160.867 63.535C162.428 62.528 164.041 61.6023 165.7 60.7616C167.389 60.0501 169.166 59.6 170.87 59.0482L171.193 58.9466H171.34C171.505 58.9068 171.671 58.8777 171.84 58.8594H172.413L173.588 58.7288C174.382 58.6263 175.181 58.5633 175.982 58.54C177.87 58.5516 179.749 58.7905 181.579 59.2515C184.822 60.0605 187.84 61.5791 190.41 63.6952C192.981 65.8113 195.038 68.4709 196.429 71.4777C197.002 72.9298 197.399 74.3818 197.898 75.8339C198.152 77.2715 198.25 78.7318 198.192 80.19C198.16 81.7121 197.892 83.2203 197.399 84.6623C196.997 86.0111 196.414 87.3004 195.665 88.4957C194.319 90.6723 192.491 92.5181 190.318 93.8941C188.145 95.27 185.684 96.14 183.121 96.4384C182.592 96.4384 182.078 96.5546 181.52 96.5691L179.698 96.3658C178.583 96.2191 177.489 95.9463 176.437 95.5527C174.553 94.7694 172.86 93.596 171.472 92.1113C170.319 90.8894 169.43 89.4481 168.86 87.8753C168.289 86.3025 168.048 84.6312 168.153 82.9634C168.376 80.5269 169.457 78.2451 171.208 76.5164C172.667 75.1885 174.456 74.2666 176.393 73.8446C174.563 74.4359 172.921 75.4925 171.634 76.9084C170.225 78.6151 169.448 80.7461 169.431 82.9489C169.542 85.8784 170.814 88.6473 172.971 90.6593C174.241 91.8783 175.795 92.7711 177.495 93.2596C179.195 93.7481 180.991 93.8175 182.724 93.4617C185.782 92.858 188.534 91.2264 190.513 88.8441C192.492 86.4618 193.575 83.4758 193.579 80.3933C193.539 79.224 193.382 78.0615 193.109 76.9229C192.639 75.8339 192.272 74.7158 191.758 73.6413C190.58 71.4673 188.933 69.5765 186.932 68.1033C184.932 66.6301 182.627 65.6108 180.183 65.1178C179.025 64.9054 177.85 64.7889 176.672 64.7693C175.918 64.8287 175.168 64.9305 174.425 65.0742L173.264 65.263H172.868H172.75L172.515 65.3646C171.252 65.8874 169.93 66.2649 168.682 66.8167C167.433 67.3685 166.302 68.2687 165.215 69.0673C163.024 70.8323 161.223 73.0223 159.922 75.5023C158.621 77.9822 157.848 80.6994 157.65 83.4862L157.474 85.4029L157.856 87.973L158.047 89.2653L158.164 89.9187C158.164 89.9187 158.164 90.0059 158.164 89.9187V90.0494L158.972 92.184C159.421 93.7355 160.137 95.1991 161.087 96.511C161.804 97.8728 162.703 99.1329 163.761 100.257C167.888 105.034 173.63 108.166 179.919 109.071C181.388 109.071 182.68 109.347 184.325 109.289L189.54 108.549C192.81 107.685 195.94 106.37 198.838 104.643C204.665 101.021 209.228 95.7198 211.911 89.4541C213.285 86.3157 214.123 82.9745 214.394 79.5657C214.643 76.1574 214.375 72.7315 213.601 69.4013C211.856 62.477 208.381 56.0963 203.495 50.8441C198.618 45.5913 192.459 41.6644 185.607 39.4397C178.755 37.215 171.44 36.767 164.363 38.1387C150.208 40.9523 137.749 49.1767 129.697 61.023C122.125 72.2444 118.988 85.8249 120.883 99.1828C122.814 111.418 127.966 122.935 135.822 132.58C142.58 140.806 151.072 147.475 160.705 152.124C168.263 155.718 176.376 158.035 184.707 158.978Z"/>
</mask>
<path fill-rule="evenodd" clip-rule="evenodd" d="M174.014 138.925C173.895 139.807 174.042 140.703 174.438 141.502C174.834 142.3 175.46 142.965 176.238 143.412C177.015 143.859 177.909 144.069 178.807 144.014C179.705 143.959 180.566 143.643 181.282 143.105C181.999 142.567 182.538 141.831 182.831 140.991C183.125 140.15 183.16 139.243 182.933 138.382C182.705 137.522 182.225 136.748 181.552 136.157C180.88 135.566 180.046 135.185 179.155 135.063C178.56 134.981 177.956 135.016 177.375 135.166C176.794 135.317 176.25 135.579 175.772 135.938C175.294 136.296 174.893 136.745 174.591 137.258C174.289 137.771 174.093 138.337 174.014 138.925ZM171.208 138.475C171.414 137.058 172.04 135.732 173.007 134.666C173.973 133.599 175.237 132.839 176.64 132.48C178.042 132.122 179.521 132.182 180.889 132.652C182.257 133.122 183.454 133.981 184.33 135.122C185.205 136.263 185.719 137.635 185.808 139.064C185.897 140.493 185.557 141.917 184.829 143.155C184.102 144.393 183.02 145.392 181.72 146.024C180.421 146.656 178.961 146.894 177.524 146.708C176.56 146.584 175.631 146.271 174.79 145.788C173.949 145.305 173.213 144.663 172.626 143.897C172.038 143.131 171.61 142.257 171.367 141.326C171.123 140.396 171.069 139.427 171.208 138.475ZM178.802 73.5977C177.267 73.5359 175.748 73.9253 174.437 74.7167C173.126 75.5081 172.081 76.6659 171.435 78.0439C170.79 79.4218 170.572 80.9581 170.809 82.4586C171.046 83.959 171.728 85.3563 172.768 86.4738C173.808 87.5914 175.16 88.379 176.653 88.7373C178.146 89.0955 179.713 89.0082 181.156 88.4865C182.599 87.9647 183.852 87.0319 184.759 85.806C185.666 84.58 186.184 83.1158 186.25 81.5985C186.329 79.5629 185.591 77.5788 184.195 76.0797C182.8 74.5806 180.861 73.6883 178.802 73.5977ZM194.872 134.366C194.627 136.14 194.919 137.946 195.712 139.555C196.505 141.164 197.764 142.505 199.328 143.407C200.893 144.309 202.693 144.732 204.5 144.622C206.308 144.512 208.042 143.875 209.483 142.79C210.924 141.705 212.007 140.223 212.595 138.529C213.182 136.836 213.249 135.008 212.785 133.278C212.322 131.547 211.35 129.991 209.991 128.807C208.633 127.623 206.949 126.864 205.154 126.627C202.753 126.308 200.322 126.944 198.395 128.395C196.468 129.846 195.201 131.993 194.872 134.366ZM151.246 134.366C151.088 135.504 151.275 136.662 151.784 137.695C152.292 138.728 153.099 139.588 154.102 140.168C155.105 140.747 156.259 141.02 157.419 140.951C158.578 140.883 159.691 140.476 160.617 139.782C161.543 139.088 162.24 138.138 162.62 137.053C162.999 135.967 163.045 134.795 162.751 133.684C162.457 132.573 161.837 131.573 160.968 130.81C160.099 130.048 159.021 129.557 157.87 129.4C157.105 129.296 156.327 129.341 155.58 129.534C154.833 129.728 154.132 130.064 153.517 130.526C152.901 130.987 152.384 131.563 151.994 132.222C151.605 132.881 151.35 133.61 151.246 134.366ZM136.557 124.652C136.432 125.602 136.597 126.567 137.029 127.425C137.461 128.283 138.14 128.994 138.982 129.47C139.824 129.945 140.789 130.162 141.756 130.094C142.723 130.025 143.647 129.675 144.412 129.086C145.177 128.498 145.748 127.698 146.052 126.788C146.356 125.878 146.38 124.9 146.121 123.977C145.861 123.054 145.33 122.227 144.595 121.603C143.86 120.979 142.954 120.584 141.991 120.47C140.708 120.296 139.407 120.633 138.375 121.406C137.342 122.179 136.662 123.325 136.483 124.594L136.557 124.652ZM131.166 115.939C131.946 116.049 132.741 115.927 133.45 115.588C134.159 115.249 134.75 114.709 135.148 114.036C135.546 113.364 135.732 112.59 135.682 111.813C135.633 111.036 135.351 110.291 134.871 109.673C134.392 109.055 133.738 108.592 132.991 108.343C132.245 108.094 131.44 108.071 130.68 108.276C129.92 108.481 129.239 108.905 128.724 109.494C128.209 110.083 127.883 110.81 127.787 111.583C127.665 112.601 127.95 113.626 128.581 114.44C129.212 115.253 130.139 115.791 131.166 115.939ZM127.111 95.3204C126.55 95.2453 125.979 95.3363 125.471 95.5818C124.962 95.8273 124.538 96.2163 124.253 96.6997C123.968 97.1831 123.834 97.7393 123.868 98.2979C123.902 98.8565 124.103 99.3925 124.446 99.8383C124.788 100.284 125.256 100.62 125.791 100.802C126.326 100.985 126.904 101.007 127.452 100.866C128 100.724 128.493 100.425 128.869 100.007C129.245 99.5884 129.487 99.0692 129.565 98.5149C129.65 97.7727 129.442 97.0267 128.985 96.4318C128.529 95.8369 127.857 95.4389 127.111 95.3204ZM184.707 158.978C190.12 159.483 195.57 159.483 200.983 158.978L206.77 158.223L201.1 159.53C195.658 160.616 190.111 161.103 184.56 160.982C175.846 160.604 167.257 158.788 159.148 155.609C148.449 151.467 138.887 144.891 131.239 136.413C121.983 126.322 115.699 113.919 113.069 100.548C110.146 85.1025 113.27 69.1364 121.809 55.8828C126.365 48.7746 132.32 42.6439 139.32 37.8547C146.32 33.0656 154.221 29.7155 162.556 28.0034C171.37 26.2688 180.486 26.7895 189.039 29.5164C197.593 32.2432 205.299 37.0856 211.427 43.5839C217.514 50.2014 221.809 58.2335 223.912 66.9328C224.902 71.368 225.219 75.9241 224.853 80.4514C224.455 84.9589 223.319 89.3725 221.489 93.5198C214.379 110.073 196.341 121.051 178.714 118.335C170.111 117.03 162.325 112.559 156.916 105.819C155.557 104.267 154.398 102.555 153.464 100.722C152.409 98.9831 151.608 97.106 151.084 95.1461L150.159 92.242V92.0678C150.159 91.8209 150.159 92.3582 150.041 91.487V91.1675V90.5141L149.894 89.2072L149.615 86.5936L149.644 83.2974C149.993 79.4057 151.173 75.6314 153.108 72.2245C155.043 68.8176 157.687 65.8558 160.867 63.535C162.428 62.528 164.041 61.6023 165.7 60.7616C167.389 60.0501 169.166 59.6 170.87 59.0482L171.193 58.9466H171.34C171.505 58.9068 171.671 58.8777 171.84 58.8594H172.413L173.588 58.7288C174.382 58.6263 175.181 58.5633 175.982 58.54C177.87 58.5516 179.749 58.7905 181.579 59.2515C184.822 60.0605 187.84 61.5791 190.41 63.6952C192.981 65.8113 195.038 68.4709 196.429 71.4777C197.002 72.9298 197.399 74.3818 197.898 75.8339C198.152 77.2715 198.25 78.7318 198.192 80.19C198.16 81.7121 197.892 83.2203 197.399 84.6623C196.997 86.0111 196.414 87.3004 195.665 88.4957C194.319 90.6723 192.491 92.5181 190.318 93.8941C188.145 95.27 185.684 96.14 183.121 96.4384C182.592 96.4384 182.078 96.5546 181.52 96.5691L179.698 96.3658C178.583 96.2191 177.489 95.9463 176.437 95.5527C174.553 94.7694 172.86 93.596 171.472 92.1113C170.319 90.8894 169.43 89.4481 168.86 87.8753C168.289 86.3025 168.048 84.6312 168.153 82.9634C168.376 80.5269 169.457 78.2451 171.208 76.5164C172.667 75.1885 174.456 74.2666 176.393 73.8446C174.563 74.4359 172.921 75.4925 171.634 76.9084C170.225 78.6151 169.448 80.7461 169.431 82.9489C169.542 85.8784 170.814 88.6473 172.971 90.6593C174.241 91.8783 175.795 92.7711 177.495 93.2596C179.195 93.7481 180.991 93.8175 182.724 93.4617C185.782 92.858 188.534 91.2264 190.513 88.8441C192.492 86.4618 193.575 83.4758 193.579 80.3933C193.539 79.224 193.382 78.0615 193.109 76.9229C192.639 75.8339 192.272 74.7158 191.758 73.6413C190.58 71.4673 188.933 69.5765 186.932 68.1033C184.932 66.6301 182.627 65.6108 180.183 65.1178C179.025 64.9054 177.85 64.7889 176.672 64.7693C175.918 64.8287 175.168 64.9305 174.425 65.0742L173.264 65.263H172.868H172.75L172.515 65.3646C171.252 65.8874 169.93 66.2649 168.682 66.8167C167.433 67.3685 166.302 68.2687 165.215 69.0673C163.024 70.8323 161.223 73.0223 159.922 75.5023C158.621 77.9822 157.848 80.6994 157.65 83.4862L157.474 85.4029L157.856 87.973L158.047 89.2653L158.164 89.9187C158.164 89.9187 158.164 90.0059 158.164 89.9187V90.0494L158.972 92.184C159.421 93.7355 160.137 95.1991 161.087 96.511C161.804 97.8728 162.703 99.1329 163.761 100.257C167.888 105.034 173.63 108.166 179.919 109.071C181.388 109.071 182.68 109.347 184.325 109.289L189.54 108.549C192.81 107.685 195.94 106.37 198.838 104.643C204.665 101.021 209.228 95.7198 211.911 89.4541C213.285 86.3157 214.123 82.9745 214.394 79.5657C214.643 76.1574 214.375 72.7315 213.601 69.4013C211.856 62.477 208.381 56.0963 203.495 50.8441C198.618 45.5913 192.459 41.6644 185.607 39.4397C178.755 37.215 171.44 36.767 164.363 38.1387C150.208 40.9523 137.749 49.1767 129.697 61.023C122.125 72.2444 118.988 85.8249 120.883 99.1828C122.814 111.418 127.966 122.935 135.822 132.58C142.58 140.806 151.072 147.475 160.705 152.124C168.263 155.718 176.376 158.035 184.707 158.978Z" stroke="white" stroke-width="8" mask="url(#path-3-inside-1_704_14325)"/>
</svg>
