<svg width="152" height="60" viewBox="0 0 152 60" fill="none" xmlns="http://www.w3.org/2000/svg">
<path d="M128.127 15.124V22.1635H128.873V15.124H128.127Z" fill="black"/>
<path d="M107.658 15.2448V16.0878H108.506V15.2448H107.658Z" fill="black"/>
<path d="M107.726 17.1753V22.162H108.472V17.1753H107.726Z" fill="black"/>
<path d="M70.0601 15.4177V22.1621H70.8278V15.4177H70.0601Z" fill="black"/>
<path d="M82.2285 29.3411H84.0607L86.3679 36.4649L88.7429 29.299H90.1765L92.5558 36.4649L94.8629 29.3411H96.6442L93.2513 39.0362H91.7881L89.413 32.1358L87.0422 39.0362H85.5705L82.2285 29.3411Z" fill="black"/>
<path d="M66.1626 36.3888L65.0557 37.5143C65.4005 38.0088 65.8646 38.4094 66.4055 38.6797C66.9463 38.9499 67.5467 39.0811 68.1517 39.0613C68.5797 39.0861 69.0083 39.0241 69.4115 38.8792C69.8147 38.7342 70.184 38.5094 70.4971 38.2183C70.8114 37.8741 71.0526 37.4706 71.2064 37.0316C71.3601 36.5927 71.4233 36.1275 71.392 35.6638V29.3409H69.6531V35.6301C69.6852 36.1333 69.5347 36.6314 69.229 37.0338C69.0907 37.1921 68.9181 37.3173 68.7242 37.3998C68.5303 37.4823 68.32 37.52 68.1093 37.5101C67.7434 37.5169 67.3831 37.4205 67.0702 37.2319C66.7223 37.0034 66.4155 36.7184 66.1626 36.3888Z" fill="black"/>
<path d="M73.7204 29.3409V38.9525L80.9558 38.9483V37.4518H75.4169V34.8592H80.2645V33.3626H75.4169V30.8332H80.888V29.3409H73.7204Z" fill="black"/>
<path d="M98.3958 29.3409V38.9525L105.606 38.9483V37.4518H100.092V34.8592H104.94V33.3626H100.092V30.8332H105.563V29.3409H98.3958Z" fill="black"/>
<path d="M107.624 38.9525V29.3409H109.321V37.4096H114.41V38.9525H107.624Z" fill="black"/>
<path d="M116.17 29.3409V38.9525H122.956V37.4096H117.866V29.3409H116.17Z" fill="black"/>
<path d="M124.712 38.9525V29.3409H131.9V30.8332H126.429V33.3626H131.277V34.8592H126.408V37.4518H131.947V38.9483L124.712 38.9525Z" fill="black"/>
<path fill-rule="evenodd" clip-rule="evenodd" d="M133.961 29.342V38.9528L135.628 38.9654V35.5932H137.749L140.149 38.9654H142.155L139.543 35.3235C140.201 35.1601 140.793 34.7996 141.239 34.2907C141.696 33.6831 141.913 32.9309 141.852 32.175C141.79 31.4191 141.453 30.7116 140.904 30.1851C140.157 29.591 139.217 29.2909 138.262 29.342H133.961ZM138.147 34.1053H135.658V30.8595H138.134C138.66 30.8311 139.18 30.9796 139.61 31.281C139.786 31.4212 139.925 31.601 140.017 31.8056C140.108 32.0102 140.149 32.2336 140.136 32.4571C140.151 32.6894 140.11 32.9219 140.016 33.1352C139.923 33.3486 139.779 33.5366 139.598 33.6837C139.179 33.9893 138.666 34.1385 138.147 34.1053Z" fill="black"/>
<path d="M142.606 29.3409H144.625L147.322 33.5945L150.054 29.3409H152L148.158 35.1248V38.9525H146.461V35.1585L142.606 29.3409Z" fill="black"/>
<path d="M66.3829 51.9059L65.3607 53.1115C66.461 54.1073 67.902 54.6485 69.3899 54.6247C70.288 54.6681 71.1726 54.3949 71.8879 53.8533C72.204 53.6027 72.4555 53.2807 72.6214 52.9142C72.7874 52.5477 72.8631 52.1471 72.8422 51.7457C72.8613 51.4081 72.8042 51.0704 72.675 50.7575C72.5459 50.4446 72.3479 50.1644 72.0957 49.9374C71.3966 49.4215 70.5889 49.0698 69.7334 48.9088C69.2491 48.8068 68.7739 48.6659 68.3126 48.4873C68.0524 48.3929 67.8194 48.2366 67.634 48.0321C67.4763 47.8037 67.4126 47.524 67.456 47.2504C67.4993 46.9767 67.6465 46.73 67.8673 46.5609C68.205 46.3287 68.6108 46.2145 69.0209 46.2364C69.9798 46.2741 70.9001 46.6219 71.6419 47.227L72.5538 45.9624C71.5638 45.1628 70.3218 44.7359 69.0463 44.7568C68.1864 44.7221 67.3429 44.9976 66.6713 45.5324C66.3733 45.7757 66.1348 46.0831 65.9739 46.4315C65.813 46.7798 65.7338 47.1599 65.7424 47.5431C65.7317 47.9327 65.8025 48.3202 65.9503 48.6812C66.0896 49.0004 66.3122 49.2769 66.5949 49.4821C66.8989 49.7046 67.2312 49.886 67.5831 50.0217C68.0343 50.192 68.4961 50.3328 68.9657 50.4432C69.4336 50.5396 69.8909 50.6808 70.3314 50.8647C70.5818 50.9595 70.8037 51.1162 70.9761 51.32C71.0931 51.4974 71.1524 51.7064 71.1457 51.9185C71.1506 52.0953 71.1109 52.2705 71.0301 52.4281C70.9494 52.5857 70.8302 52.7206 70.6834 52.8206C70.3126 53.061 69.8743 53.1776 69.4323 53.1536C68.8834 53.1594 68.3392 53.0533 67.8333 52.8417C67.3042 52.6059 66.8149 52.2903 66.3829 51.9059Z" fill="black"/>
<path d="M74.4156 49.7392C74.4125 49.0781 74.5378 48.4226 74.7846 47.8087C75.0179 47.2214 75.3636 46.6846 75.8025 46.2281C76.2517 45.769 76.7918 45.4073 77.3887 45.1659C78.024 44.9024 78.7063 44.7691 79.3947 44.7739C80.1205 44.757 80.8421 44.8875 81.5153 45.1575C82.1253 45.4259 82.6825 45.7998 83.1609 46.2618L82.0752 47.5263C81.6971 47.1708 81.2684 46.8725 80.8028 46.6412C80.3564 46.4307 79.8676 46.324 79.3735 46.3293C78.7946 46.3219 78.226 46.4815 77.7364 46.7887C77.2483 47.0904 76.8523 47.5189 76.5913 48.0279C76.3113 48.5613 76.1658 49.1544 76.1672 49.756C76.1457 50.653 76.4722 51.5238 77.0791 52.1881C77.3622 52.5098 77.7128 52.766 78.1063 52.9386C78.4998 53.1112 78.9266 53.196 79.3566 53.187C79.8635 53.1977 80.3659 53.0909 80.824 52.8751C81.3043 52.6264 81.7457 52.3098 82.1345 51.9352L83.2288 53.0353C82.9053 53.3736 82.5471 53.6773 82.16 53.9415C81.7677 54.1948 81.3386 54.3867 80.8876 54.5105C80.3666 54.659 79.8265 54.7314 79.2845 54.7255C78.4038 54.735 77.5367 54.5094 76.7737 54.0722C76.0324 53.644 75.4225 53.0232 75.0094 52.2766C74.5938 51.4961 74.3892 50.6218 74.4156 49.7392Z" fill="black"/>
<path d="M85.0276 44.9131V54.5204L86.7241 54.5119V50.465H91.3385V54.5119H93.0349V44.9046H91.3385V48.8968H86.7241V44.9131H85.0276Z" fill="black"/>
<path fill-rule="evenodd" clip-rule="evenodd" d="M95.0921 49.7378C95.0896 48.4343 95.5976 47.181 96.5087 46.2433C96.9676 45.7808 97.5158 45.4152 98.1203 45.1684C99.426 44.643 100.886 44.643 102.192 45.1684C102.793 45.4118 103.338 45.7731 103.795 46.2307C104.238 46.6866 104.588 47.2234 104.826 47.8114C105.326 49.0461 105.326 50.4253 104.826 51.6599C104.585 52.2499 104.233 52.7881 103.787 53.2449C103.327 53.7056 102.779 54.0697 102.175 54.3155C101.528 54.5822 100.835 54.7169 100.135 54.7118C99.2194 54.7248 98.3171 54.4933 97.5223 54.0415C96.7711 53.6122 96.1522 52.9868 95.7325 52.2332C95.3044 51.4709 95.0837 50.6108 95.0921 49.7378ZM96.8734 49.7378C96.8685 50.3372 97.0143 50.9284 97.2975 51.4576C97.5692 51.9787 97.9811 52.4146 98.4873 52.7167C98.9935 53.0189 99.5741 53.1755 100.165 53.169C100.75 53.1755 101.326 53.0216 101.83 52.7242C102.333 52.4268 102.745 51.9973 103.019 51.4829C103.3 50.9498 103.445 50.3565 103.443 49.7546C103.447 49.1566 103.302 48.5669 103.019 48.039C102.749 47.5185 102.342 47.0811 101.84 46.7744C101.327 46.4695 100.741 46.3085 100.143 46.3085C99.5459 46.3085 98.9596 46.4695 98.4469 46.7744C97.9521 47.0719 97.551 47.5013 97.2891 48.0137C97.0115 48.5463 96.8689 49.138 96.8734 49.7378Z" fill="black"/>
<path fill-rule="evenodd" clip-rule="evenodd" d="M108.239 46.2441C107.328 47.1818 106.82 48.4351 106.822 49.7386C106.812 50.6112 107.032 51.4713 107.458 52.234C107.878 52.9888 108.499 53.6143 109.252 54.0424C110.045 54.4946 110.946 54.7261 111.861 54.7126C112.561 54.7178 113.254 54.583 113.901 54.3164C114.505 54.0716 115.054 53.7073 115.512 53.2457C116.424 52.305 116.932 51.0489 116.929 49.7428C116.933 49.0812 116.806 48.4253 116.556 47.8122C116.318 47.2242 115.968 46.6874 115.525 46.2315C115.069 45.773 114.523 45.4116 113.922 45.1693C112.616 44.6438 111.156 44.6438 109.85 45.1693C109.246 45.416 108.698 45.7816 108.239 46.2441ZM109.028 51.4584C108.746 50.9284 108.601 50.3378 108.603 49.7386C108.599 49.1325 108.744 48.5345 109.028 47.9977C109.29 47.484 109.693 47.0544 110.19 46.7584C110.699 46.4463 111.288 46.2854 111.886 46.2947C112.484 46.2886 113.072 46.4492 113.583 46.7584C114.082 47.0665 114.488 47.5036 114.757 48.023C115.04 48.551 115.186 49.1406 115.181 49.7386C115.184 50.3404 115.038 50.9337 114.757 51.4669C114.492 51.9798 114.088 52.409 113.591 52.7061C113.081 53.0179 112.493 53.1787 111.895 53.1698C111.304 53.1763 110.723 53.0197 110.217 52.7176C109.711 52.4154 109.299 51.9795 109.028 51.4584Z" fill="black"/>
<path d="M118.981 54.5194V44.9128H120.678V52.9808H125.767V54.5194H118.981Z" fill="black"/>
<path d="M72.6896 22.1635V17.1768H73.436V18.0452C73.6024 17.7444 73.8485 17.4947 74.1475 17.323C74.4466 17.1514 74.7872 17.0644 75.1325 17.0715C75.3925 17.0582 75.6524 17.0998 75.8951 17.1935C76.1378 17.2873 76.3577 17.431 76.5405 17.6152C76.8955 18.0151 77.0796 18.5368 77.0537 19.0695V22.1635H76.3412V19.2508C76.3635 18.8502 76.2333 18.4559 75.9765 18.1464C75.8452 18.0103 75.6859 17.9041 75.5095 17.8349C75.3331 17.7658 75.1437 17.7354 74.9543 17.7459C74.7553 17.7386 74.5568 17.7723 74.3714 17.8449C74.1861 17.9174 74.0178 18.0272 73.8771 18.1674C73.7333 18.3175 73.6216 18.495 73.5487 18.6891C73.4758 18.8833 73.4432 19.0901 73.453 19.2971V22.1509L72.6896 22.1635Z" fill="black"/>
<path d="M79.3099 21.9167C79.6 22.1538 79.9698 22.2728 80.3447 22.2496C80.6575 22.2569 80.9674 22.1889 81.2481 22.0515V21.4151C81.0209 21.5261 80.7717 21.5851 80.5186 21.5879C80.4031 21.6059 80.2849 21.5965 80.1737 21.5606C80.0625 21.5246 79.9615 21.463 79.8788 21.3808C79.7961 21.2986 79.7341 21.1982 79.6979 21.0877C79.6617 20.9772 79.6523 20.8598 79.6704 20.745V17.8326H81.265V17.1751H79.6704V15.6704H78.9239V17.1751H78.2241V17.8326H78.9239V20.8503C78.9071 21.0452 78.9329 21.2414 78.9995 21.4255C79.0662 21.6095 79.172 21.7771 79.3099 21.9167Z" fill="black"/>
<path fill-rule="evenodd" clip-rule="evenodd" d="M82.89 19.976C82.9178 20.4381 83.1245 20.8716 83.4668 21.1856C83.7889 21.4832 84.2146 21.6449 84.6543 21.6366C84.953 21.6366 85.2484 21.5739 85.521 21.4526C85.7936 21.3313 86.0374 21.1542 86.2363 20.9327L86.7028 21.3542C86.4488 21.6513 86.132 21.8891 85.7751 22.0508C85.4181 22.2125 85.0297 22.2941 84.6374 22.2899C84.3059 22.2969 83.9766 22.2358 83.67 22.1103C83.3635 21.9848 83.0864 21.7977 82.8561 21.5607C82.6127 21.3139 82.4227 21.0202 82.298 20.6976C82.1732 20.375 82.1164 20.0305 82.1308 19.6852C82.1155 19.0047 82.3628 18.3441 82.8222 17.8392C83.0349 17.5953 83.2991 17.4008 83.5959 17.2697C83.8928 17.1386 84.215 17.074 84.5398 17.0806C84.8617 17.07 85.1817 17.1325 85.4757 17.2632C85.7696 17.3939 86.0297 17.5895 86.2363 17.835C86.6669 18.369 86.8897 19.0393 86.864 19.7231C86.8686 19.8102 86.8686 19.8974 86.864 19.9844L82.89 19.976ZM86.1218 19.3775H82.891C82.9258 18.9286 83.114 18.5048 83.4244 18.1764C83.5629 18.0253 83.732 17.9051 83.9206 17.8238C84.1092 17.7424 84.313 17.7017 84.5186 17.7043C84.7296 17.6942 84.9402 17.7314 85.1347 17.8131C85.3293 17.8948 85.5028 18.019 85.6425 18.1764C85.9234 18.5179 86.0909 18.9375 86.1218 19.3775Z" fill="black"/>
<path d="M88.1872 17.177V22.1636H88.9294V20.1782C88.8899 19.5654 89.0905 18.9612 89.4892 18.4921C89.6715 18.2955 89.8943 18.1402 90.1424 18.0369C90.3905 17.9336 90.6581 17.8847 90.927 17.8936H90.9821V17.0927C90.5458 17.0652 90.1137 17.1905 89.7607 17.4468C89.3981 17.7114 89.1139 18.0681 88.9379 18.4795V17.177H88.1872Z" fill="black"/>
<path d="M92.119 22.1644V17.177H92.8825V18.0455C93.0489 17.7447 93.2949 17.4949 93.594 17.3233C93.893 17.1516 94.2337 17.0646 94.5789 17.0717C94.839 17.0579 95.0991 17.0992 95.3418 17.193C95.5846 17.2868 95.8045 17.4308 95.987 17.6155C96.342 18.0154 96.5261 18.5372 96.5002 19.07V22.1644H95.7537V19.2513C95.7777 18.8504 95.6473 18.4555 95.389 18.1467C95.2581 18.0102 95.0989 17.9036 94.9224 17.8344C94.7458 17.7653 94.5563 17.7352 94.3669 17.7462C94.1678 17.7394 93.9695 17.7734 93.7842 17.8459C93.5989 17.9184 93.4306 18.028 93.2896 18.1678C93.1466 18.3184 93.0354 18.496 92.9626 18.6901C92.8897 18.8841 92.8567 19.0907 92.8655 19.2976V22.1518L92.119 22.1644Z" fill="black"/>
<path fill-rule="evenodd" clip-rule="evenodd" d="M98.2732 21.852C98.6529 22.1353 99.1174 22.2837 99.5922 22.2735C99.9414 22.2876 100.289 22.2175 100.605 22.0692C100.921 21.9209 101.196 21.6989 101.407 21.422V22.1597H102.145V19.112C102.162 18.8455 102.124 18.5783 102.034 18.3268C101.944 18.0753 101.803 17.8448 101.619 17.6494C101.4 17.454 101.144 17.3044 100.866 17.2095C100.588 17.1147 100.293 17.0764 99.9993 17.0972C99.3679 17.1049 98.7457 17.2487 98.1756 17.5187L98.3962 18.1257C98.8716 17.9034 99.3892 17.7842 99.9145 17.7758C100.311 17.7515 100.701 17.8765 101.009 18.1257C101.144 18.2541 101.249 18.4106 101.316 18.584C101.384 18.7574 101.412 18.9435 101.399 19.1289V19.2807C100.899 19.1416 100.383 19.0707 99.8636 19.0699C99.3111 19.038 98.7631 19.186 98.3029 19.4914C98.1117 19.6278 97.958 19.8096 97.8558 20.0201C97.7535 20.2307 97.706 20.4634 97.7176 20.697C97.7078 20.92 97.7534 21.142 97.8503 21.3434C97.9472 21.5448 98.0924 21.7195 98.2732 21.852ZM100.924 21.2956C100.583 21.5533 100.164 21.6872 99.7364 21.6749C99.4237 21.6792 99.1178 21.5848 98.8627 21.4052C98.7461 21.3206 98.6513 21.21 98.5859 21.0822C98.5206 20.9543 98.4865 20.813 98.4865 20.6696C98.4865 20.5262 98.5206 20.3848 98.5859 20.257C98.6513 20.1292 98.7461 20.0185 98.8627 19.934C99.1836 19.7315 99.5604 19.6342 99.9399 19.6558C100.437 19.6573 100.931 19.7297 101.407 19.8708V20.3345C101.41 20.5215 101.368 20.7065 101.284 20.8738C101.2 21.0411 101.076 21.1858 100.924 21.2956Z" fill="black"/>
<path d="M105.398 22.2505C105.022 22.2708 104.653 22.1488 104.363 21.909C104.227 21.7686 104.122 21.6007 104.057 21.4168C103.991 21.2329 103.965 21.0371 103.982 20.8426V17.8329H103.282V17.1753H103.982V15.6704H104.728V17.1753H106.319V17.8329H104.728V20.7456C104.71 20.8604 104.719 20.9779 104.756 21.0884C104.792 21.1989 104.854 21.2993 104.937 21.3815C105.019 21.4637 105.12 21.5253 105.232 21.5613C105.343 21.5973 105.461 21.6067 105.576 21.5887C105.828 21.5865 106.076 21.5274 106.302 21.4158V22.0523C106.021 22.1899 105.711 22.2579 105.398 22.2505Z" fill="black"/>
<path fill-rule="evenodd" clip-rule="evenodd" d="M114.355 21.4972C114.112 21.7459 113.821 21.9423 113.498 22.0743C113.176 22.2063 112.829 22.271 112.481 22.2644C112.135 22.2733 111.79 22.21 111.47 22.0786C111.15 21.9472 110.862 21.7505 110.623 21.5014C110.144 21.0073 109.876 20.3477 109.876 19.6614C109.876 18.9751 110.144 18.3156 110.623 17.8215C111.119 17.3314 111.79 17.0563 112.489 17.0563C113.188 17.0563 113.859 17.3314 114.355 17.8215C114.836 18.3146 115.105 18.9745 115.105 19.6614C115.105 20.3483 114.836 21.0083 114.355 21.5014V21.4972ZM112.502 21.5983C112.747 21.6103 112.992 21.5699 113.221 21.4797C113.449 21.3895 113.655 21.2517 113.825 21.0756C114.162 20.6934 114.346 20.2014 114.342 19.6933C114.338 19.1851 114.147 18.696 113.804 18.3189C113.637 18.1355 113.433 17.9898 113.204 17.8916C112.976 17.7934 112.729 17.7451 112.481 17.7498C112.233 17.7423 111.986 17.7891 111.758 17.8867C111.53 17.9843 111.327 18.1304 111.162 18.3147C110.817 18.6923 110.633 19.1878 110.648 19.6973C110.635 20.207 110.826 20.7012 111.179 21.0714C111.348 21.2498 111.554 21.3905 111.782 21.4842C112.01 21.5779 112.255 21.6226 112.502 21.6152V21.5983Z" fill="black"/>
<path d="M116.458 17.177V22.1644L117.209 22.1518V19.2976C117.2 19.0907 117.233 18.8841 117.306 18.6901C117.379 18.496 117.49 18.3184 117.633 18.1678C117.774 18.0279 117.942 17.9184 118.127 17.8459C118.313 17.7733 118.511 17.7394 118.71 17.7462C118.9 17.7356 119.09 17.766 119.267 17.8351C119.444 17.9042 119.604 18.0105 119.736 18.1467C119.992 18.4569 120.12 18.8511 120.097 19.2512V22.1644H120.848V19.07C120.872 18.5366 120.687 18.0148 120.33 17.6155C120.148 17.4309 119.929 17.2869 119.687 17.1931C119.445 17.0993 119.186 17.0579 118.926 17.0716C118.577 17.0606 118.232 17.1458 117.929 17.3177C117.626 17.4896 117.377 17.7415 117.209 18.0455V17.177H116.458Z" fill="black"/>
<path fill-rule="evenodd" clip-rule="evenodd" d="M123.931 22.273C123.456 22.2832 122.992 22.1348 122.612 21.8514C122.432 21.7184 122.288 21.5436 122.191 21.3422C122.095 21.1408 122.05 20.919 122.061 20.6963C122.049 20.4631 122.096 20.2306 122.197 20.02C122.298 19.8094 122.451 19.6274 122.642 19.4905C123.102 19.185 123.65 19.037 124.202 19.069C124.722 19.0695 125.238 19.1404 125.738 19.2798V19.128C125.751 18.9425 125.723 18.7564 125.655 18.583C125.588 18.4096 125.483 18.2531 125.348 18.1246C125.04 17.8754 124.649 17.7504 124.253 17.7747C123.726 17.7842 123.207 17.9064 122.731 18.133L122.506 17.526C123.076 17.2559 123.698 17.1121 124.33 17.1044C124.625 17.0814 124.922 17.1181 125.203 17.2123C125.483 17.3065 125.742 17.4562 125.963 17.6524C126.146 17.8479 126.287 18.0785 126.377 18.33C126.468 18.5815 126.505 18.8488 126.488 19.1153V22.1634H125.751V21.4214C125.539 21.6989 125.263 21.9214 124.946 22.0697C124.629 22.218 124.281 22.2878 123.931 22.273ZM124.079 21.6743C124.506 21.6874 124.924 21.5534 125.263 21.2949C125.415 21.1851 125.539 21.0405 125.623 20.8731C125.707 20.7058 125.749 20.5208 125.746 20.3337V19.87C125.271 19.7291 124.779 19.6567 124.283 19.655C123.903 19.6327 123.526 19.7301 123.206 19.9332C123.088 20.0157 122.991 20.1248 122.923 20.2515C122.856 20.3782 122.819 20.519 122.817 20.6624C122.814 20.8059 122.846 20.9478 122.909 21.0768C122.972 21.2057 123.065 21.318 123.18 21.4045C123.443 21.5891 123.758 21.6838 124.079 21.6743Z" fill="black"/>
<path d="M30.944 0V60M11.0445 15.2667H50.8522V54.8311H11.0445V15.2667ZM11.0445 15.2667L50.8479 54.8269M0 31.0234L61.7769 31.0651M11.0445 54.8269L50.8479 15.2667M41.211 9.29881C46.227 11.664 50.2627 15.6847 52.6304 20.6758C54.998 25.6669 55.5511 31.3195 54.1954 36.6705C52.8397 42.0214 49.6591 46.7396 45.1956 50.0211C40.7321 53.3025 35.2618 54.9442 29.717 54.6664C24.1721 54.3885 18.8957 52.2084 14.7869 48.4973C10.6781 44.7863 7.99108 39.7741 7.18376 34.3148C6.37644 28.8554 7.49875 23.2868 10.3595 18.5577C13.2202 13.8286 17.6422 10.2317 22.8722 8.37989C28.8663 6.25997 35.4618 6.59046 41.211 9.29881Z" stroke="#AC8A5C"/>
<path fill-rule="evenodd" clip-rule="evenodd" d="M29.6034 47.7617C29.569 48.0175 29.6116 48.2778 29.7259 48.5096C29.8402 48.7414 30.021 48.9344 30.2455 49.0642C30.47 49.194 30.7281 49.2548 30.9874 49.2389C31.2466 49.2231 31.4953 49.1312 31.7021 48.975C31.9089 48.8188 32.0645 48.6053 32.1493 48.3613C32.2341 48.1173 32.2443 47.8538 32.1785 47.604C32.1128 47.3543 31.9742 47.1295 31.78 46.958C31.5859 46.7865 31.345 46.676 31.0878 46.6404C30.9162 46.6167 30.7415 46.6269 30.5739 46.6704C30.4063 46.714 30.249 46.7901 30.111 46.8943C29.9731 46.9985 29.8572 47.1288 29.7701 47.2776C29.683 47.4265 29.6263 47.591 29.6034 47.7617Z" fill="#AC8A5C"/>
<path fill-rule="evenodd" clip-rule="evenodd" d="M29.6034 47.7629C29.569 48.0188 29.6117 48.2791 29.7259 48.5109C29.8402 48.7427 30.021 48.9357 30.2455 49.0655C30.47 49.1953 30.7282 49.2561 30.9874 49.2402C31.2467 49.2243 31.4954 49.1325 31.7022 48.9763C31.9089 48.8201 32.0645 48.6065 32.1493 48.3625C32.2341 48.1185 32.2443 47.855 32.1786 47.6053C32.1129 47.3555 31.9742 47.1307 31.7801 46.9592C31.586 46.7877 31.3451 46.6772 31.0878 46.6416C30.9162 46.6179 30.7416 46.6281 30.574 46.6717C30.4063 46.7153 30.249 46.7913 30.1111 46.8955C29.9731 46.9997 29.8573 47.13 29.7701 47.2789C29.683 47.4277 29.6264 47.5922 29.6034 47.7629ZM28.7934 47.6322C28.8529 47.2208 29.0336 46.836 29.3127 46.5263C29.5917 46.2167 29.9567 45.9959 30.3616 45.8919C30.7666 45.7879 31.1934 45.8052 31.5885 45.9417C31.9836 46.0781 32.3292 46.3277 32.582 46.6589C32.8347 46.9901 32.9832 47.3883 33.0089 47.8032C33.0346 48.2181 32.9362 48.6313 32.7262 48.9908C32.5162 49.3503 32.2039 49.6401 31.8286 49.8236C31.4533 50.0072 31.0318 50.0763 30.6171 50.0224C30.3387 49.9861 30.0703 49.8953 29.8275 49.7552C29.5847 49.6151 29.3723 49.4284 29.2027 49.2061C29.033 48.9838 28.9095 48.7301 28.8392 48.46C28.7689 48.1898 28.7534 47.9085 28.7934 47.6322ZM30.986 28.798C30.5428 28.7801 30.1042 28.8931 29.7256 29.1229C29.347 29.3526 29.0455 29.6887 28.859 30.0888C28.6726 30.4888 28.6096 30.9348 28.6781 31.3704C28.7466 31.806 28.9434 32.2116 29.2438 32.536C29.5441 32.8604 29.9345 33.0891 30.3655 33.1931C30.7966 33.2971 31.249 33.2718 31.6656 33.1203C32.0821 32.9688 32.4442 32.698 32.706 32.3421C32.9677 31.9862 33.1175 31.5612 33.1363 31.1207C33.1593 30.5297 32.9461 29.9537 32.5432 29.5185C32.1403 29.0834 31.5805 28.8243 30.986 28.798ZM35.6259 46.4393C35.555 46.9542 35.6394 47.4785 35.8684 47.9457C36.0974 48.4129 36.4608 48.8021 36.9125 49.0639C37.3642 49.3258 37.8839 49.4485 38.4058 49.4166C38.9277 49.3848 39.4284 49.1997 39.8444 48.8848C40.2604 48.57 40.5731 48.1395 40.7429 47.648C40.9126 47.1564 40.9318 46.6258 40.798 46.1234C40.6642 45.621 40.3834 45.1693 39.9912 44.8256C39.599 44.4819 39.113 44.2616 38.5947 44.1925C37.9014 44.1002 37.1996 44.2848 36.643 44.706C36.0865 45.1272 35.7207 45.7505 35.6259 46.4393ZM23.0296 46.4393C22.9841 46.7696 23.0382 47.1059 23.185 47.4057C23.3317 47.7055 23.5646 47.9554 23.8542 48.1236C24.1438 48.2919 24.4771 48.371 24.812 48.3511C25.1468 48.3311 25.4682 48.2129 25.7355 48.0115C26.0028 47.81 26.2039 47.5343 26.3136 47.2193C26.4233 46.9042 26.4365 46.5639 26.3517 46.2413C26.2668 45.9187 26.0876 45.6284 25.8368 45.4071C25.5859 45.1857 25.2747 45.0432 24.9424 44.9977C24.7215 44.9674 24.4968 44.9806 24.2811 45.0367C24.0654 45.0928 23.863 45.1905 23.6853 45.3244C23.5077 45.4583 23.3583 45.6257 23.2458 45.817C23.1333 46.0083 23.0598 46.2198 23.0296 46.4393ZM18.7884 43.6192C18.7526 43.8951 18.8001 44.1753 18.9248 44.4243C19.0494 44.6733 19.2458 44.8799 19.4888 45.0179C19.7318 45.1558 20.0106 45.2188 20.2897 45.199C20.5689 45.1792 20.8358 45.0774 21.0566 44.9066C21.2775 44.7357 21.4423 44.5035 21.5301 44.2394C21.6179 43.9753 21.6248 43.6913 21.5499 43.4233C21.475 43.1553 21.3217 42.9154 21.1095 42.7341C20.8972 42.5529 20.6355 42.4384 20.3577 42.4052C19.9871 42.3548 19.6115 42.4525 19.3134 42.6769C19.0152 42.9014 18.8188 43.2342 18.7672 43.6024L18.7884 43.6192ZM17.2319 41.09C17.4571 41.1218 17.6867 41.0863 17.8915 40.9879C18.0963 40.8895 18.267 40.7327 18.3818 40.5376C18.4965 40.3424 18.5502 40.1177 18.536 39.8921C18.5218 39.6664 18.4403 39.4501 18.3019 39.2707C18.1635 39.0913 17.9745 38.9569 17.759 38.8847C17.5435 38.8125 17.3112 38.8057 17.0917 38.8652C16.8723 38.9247 16.6757 39.0478 16.5269 39.2188C16.3781 39.3898 16.284 39.601 16.2565 39.8254C16.2213 40.121 16.3035 40.4185 16.4857 40.6547C16.6679 40.8909 16.9356 41.047 17.2319 41.09ZM16.0614 35.1042C15.8994 35.0824 15.7345 35.1088 15.5876 35.1801C15.4407 35.2514 15.3184 35.3643 15.236 35.5046C15.1537 35.645 15.115 35.8064 15.1249 35.9686C15.1348 36.1308 15.1929 36.2864 15.2917 36.4158C15.3905 36.5452 15.5257 36.6426 15.6802 36.6957C15.8347 36.7487 16.0016 36.7551 16.1597 36.714C16.3178 36.6729 16.4602 36.5861 16.5687 36.4647C16.6773 36.3432 16.7472 36.1925 16.7696 36.0316C16.7942 35.8161 16.7343 35.5996 16.6024 35.4269C16.4705 35.2542 16.2768 35.1386 16.0614 35.1042ZM32.691 53.5843C34.2539 53.7308 35.8273 53.7308 37.3902 53.5843L39.0612 53.3651L37.4241 53.7445C35.8528 54.0598 34.2512 54.2011 32.6486 54.1661C30.1325 54.0563 27.6525 53.5292 25.3114 52.6064C22.222 51.4039 19.4614 49.4947 17.2531 47.0337C14.5807 44.1042 12.7663 40.5034 12.0068 36.6217C11.1629 32.1379 12.0649 27.5029 14.5303 23.6553C15.8459 21.5918 17.5653 19.812 19.5863 18.4217C21.6073 17.0314 23.8888 16.0588 26.2953 15.5618C28.8402 15.0582 31.4723 15.2094 33.9418 16.001C36.4114 16.7926 38.6364 18.1984 40.4057 20.0849C42.1633 22.006 43.4034 24.3377 44.0107 26.8632C44.2964 28.1507 44.3879 29.4734 44.2821 30.7877C44.1672 32.0962 43.8392 33.3775 43.3109 34.5815C41.2582 39.387 36.05 42.5738 30.9606 41.7855C28.4766 41.4067 26.2285 40.1088 24.6667 38.1519C24.2745 37.7014 23.9397 37.2044 23.67 36.6723C23.3656 36.1675 23.1343 35.6226 22.983 35.0536L22.7158 34.2106V34.16C22.7158 34.0883 22.7158 34.2443 22.6818 33.9914V33.8986V33.7089L22.6394 33.3295L22.5588 32.5708L22.5673 31.6139C22.6679 30.4841 23.0088 29.3884 23.5674 28.3994C24.126 27.4103 24.8896 26.5505 25.8076 25.8768C26.2583 25.5844 26.724 25.3157 27.2029 25.0717C27.6907 24.8651 28.2038 24.7344 28.6958 24.5742L28.7891 24.5447H28.8315C28.879 24.5332 28.9272 24.5247 28.9757 24.5194H29.1411L29.4804 24.4815C29.7098 24.4518 29.9405 24.4335 30.1717 24.4267C30.7168 24.4301 31.2594 24.4994 31.7876 24.6333C32.7241 24.8681 33.5955 25.309 34.3376 25.9233C35.0798 26.5376 35.6736 27.3097 36.0754 28.1826C36.2409 28.6041 36.3554 29.0257 36.4996 29.4472C36.5728 29.8646 36.6013 30.2885 36.5844 30.7118C36.5751 31.1537 36.4979 31.5915 36.3554 32.0101C36.2394 32.4017 36.0711 32.776 35.8549 33.123C35.4663 33.7548 34.9383 34.2907 34.3109 34.6901C33.6835 35.0896 32.9729 35.3421 32.2329 35.4288C32.0803 35.4288 31.9318 35.4625 31.7707 35.4667L31.2448 35.4077C30.9228 35.3651 30.6069 35.2859 30.3032 35.1717C29.759 34.9443 29.2702 34.6036 28.8697 34.1726C28.5368 33.8179 28.2801 33.3995 28.1153 32.9429C27.9505 32.4863 27.8811 32.0011 27.9112 31.5169C27.9755 30.8096 28.2878 30.1472 28.7934 29.6453C29.2147 29.2598 29.7313 28.9922 30.2905 28.8697C29.7619 29.0413 29.2881 29.3481 28.9164 29.7591C28.5095 30.2546 28.2851 30.8732 28.2802 31.5127C28.3125 32.3632 28.6795 33.167 29.3023 33.7511C29.6692 34.105 30.1177 34.3641 30.6086 34.506C31.0995 34.6478 31.6179 34.6679 32.1184 34.5646C33.0013 34.3894 33.796 33.9157 34.3673 33.2241C34.9387 32.5325 35.2515 31.6657 35.2527 30.7708C35.241 30.4314 35.1956 30.0939 35.1169 29.7633C34.9812 29.4472 34.8752 29.1226 34.7268 28.8107C34.3868 28.1796 33.911 27.6306 33.3334 27.203C32.7558 26.7753 32.0904 26.4794 31.3847 26.3363C31.0502 26.2746 30.7112 26.2408 30.3711 26.2351C30.1533 26.2523 29.9366 26.2819 29.7222 26.3236L29.3871 26.3784H29.2726H29.2387L29.1708 26.4079C28.8061 26.5597 28.4244 26.6693 28.0639 26.8295C27.7034 26.9896 27.3768 27.251 27.063 27.4828C26.4305 27.9952 25.9103 28.631 25.5347 29.3509C25.159 30.0709 24.9358 30.8597 24.8788 31.6687L24.8279 32.2251L24.9381 32.9712L24.9933 33.3464L25.0272 33.5361C25.0272 33.5361 25.0272 33.5614 25.0272 33.5361V33.574L25.2605 34.1937C25.3901 34.6441 25.5967 35.069 25.8712 35.4499C26.0782 35.8452 26.3378 36.211 26.6431 36.5374C27.8348 37.9241 29.4927 38.8333 31.3084 39.0961C31.7325 39.0961 32.1057 39.1762 32.5807 39.1594L34.0863 38.9444C35.0304 38.6936 35.9341 38.3119 36.771 37.8105C38.4535 36.7592 39.7709 35.2202 40.5456 33.4012C40.9421 32.4901 41.1843 31.5202 41.2624 30.5305C41.3342 29.5411 41.257 28.5466 41.0334 27.5798C40.5297 25.5696 39.5264 23.7173 38.1154 22.1926C36.7075 20.6677 34.9292 19.5277 32.9508 18.8818C30.9725 18.236 28.8604 18.1059 26.817 18.5041C22.7301 19.3209 19.1329 21.7085 16.8078 25.1475C14.6216 28.4051 13.716 32.3476 14.2631 36.2255C14.8205 39.7773 16.308 43.1209 18.5764 45.9208C20.5277 48.3088 22.9795 50.245 25.7609 51.5947C27.9429 52.6379 30.2854 53.3105 32.691 53.5843Z" fill="black"/>
</svg>
