<svg width="342" height="170" viewBox="0 0 342 170" fill="none" xmlns="http://www.w3.org/2000/svg">
<path fill-rule="evenodd" clip-rule="evenodd" d="M87.0915 155.919V170H88.2208V155.919H144.616V125.224C148.93 118.797 152.146 111.641 154.072 104.037C155.362 98.943 156.047 93.7535 156.137 88.5701L174.999 88.5829L175 87.4603L156.147 87.4474C156.154 77.452 153.948 67.5067 149.602 58.3422C148.152 55.2858 146.484 52.3567 144.616 49.5743V42.697H139.334C133.176 35.656 125.585 29.8957 116.985 25.8396C107.903 21.5605 98.0818 19.3591 88.2208 19.2705V0H87.0915V19.2696C79.497 19.3257 71.8948 20.6353 64.604 23.2143C53.4405 27.1678 43.5655 33.9057 35.8775 42.697H30.7208V49.3889C30.0787 50.3386 29.4594 51.3062 28.8638 52.291C22.4281 62.9322 19.0727 75.0613 19.0644 87.3539L0.000774925 87.3409L0 88.4635L19.073 88.4765C19.1198 91.419 19.3586 94.3685 19.7931 97.307C21.2906 107.436 25.0526 117.026 30.7208 125.409V155.919H87.0915ZM31.8501 127.029V153.99L45.082 140.837C43.8604 139.876 42.6689 138.872 41.5099 137.825C37.891 134.556 34.6584 130.933 31.8501 127.029ZM45.8861 140.037C44.6484 139.068 43.442 138.053 42.2694 136.994C38.3087 133.416 34.8183 129.408 31.8501 125.066V88.4853L76.013 88.5154L86.8637 99.302L45.8861 140.037ZM45.9804 141.531L32.6367 154.796H77.5373C66.0639 153.103 55.2026 148.539 45.9804 141.531ZM87.0915 154.411C86.1326 154.403 85.1724 154.376 84.2114 154.328C70.5983 153.645 57.5613 148.881 46.7862 140.73L87.0915 100.663V154.411ZM97.6742 154.796H142.688L129.295 141.483C128.988 141.717 128.678 141.949 128.366 142.178C119.276 148.862 108.723 153.165 97.6742 154.796ZM128.489 140.682C128.226 140.881 127.961 141.079 127.694 141.275C116.233 149.703 102.408 154.281 88.2208 154.41V100.651L128.489 140.682ZM130.192 140.787L143.486 154.002V126.854C139.761 132.068 135.294 136.766 130.192 140.787ZM143.486 124.882C139.622 130.575 134.876 135.679 129.389 139.988L88.4608 99.302L99.2955 88.5313L143.486 88.5614V124.882ZM144.616 123.162C148.389 117.218 151.225 110.679 152.977 103.763C154.244 98.7589 154.918 93.6611 155.007 88.5693L144.616 88.5622V123.162ZM155.018 87.4466C155.024 77.6159 152.855 67.8345 148.58 58.821C147.402 56.3369 146.077 53.9385 144.616 51.6362V87.4395L155.018 87.4466ZM143.486 47.9441V44.6016L142.06 46.0198C142.546 46.6525 143.022 47.294 143.486 47.9441ZM141.254 46.8208C142.027 47.8302 142.771 48.8623 143.486 49.9161V87.4388L100.424 87.4094L141.254 46.8208ZM141.361 45.1267L142.676 43.8197H140.294C140.655 44.2508 141.011 44.6865 141.361 45.1267ZM138.817 43.8197C139.411 44.5097 139.991 45.2119 140.557 45.926L98.8281 87.4083L88.2208 87.4011V43.8197H138.817ZM137.828 42.697C131.891 36.1063 124.657 30.7008 116.501 26.8539C107.572 22.6468 97.916 20.4817 88.2208 20.3933V42.697H137.828ZM87.0915 20.3923C79.6249 20.4484 72.1508 21.7364 64.9828 24.2719C54.3171 28.0492 44.8474 34.4105 37.3836 42.697H87.0915V20.3923ZM34.917 43.8197H32.6487L33.9003 45.0639C34.2345 44.645 34.5734 44.2302 34.917 43.8197ZM34.7043 45.8631C35.2547 45.1703 35.8184 44.4891 36.3948 43.8197H87.0915V87.4003L76.4811 87.393L34.7043 45.8631ZM33.2007 45.9561L31.8501 44.6135V47.7697C32.2907 47.1572 32.741 46.5526 33.2007 45.9561ZM31.8501 49.7327C32.5427 48.7196 33.2618 47.7274 34.0064 46.757L74.8828 87.392L31.8501 87.3626V49.7327ZM30.7208 51.4402C30.4188 51.9124 30.1223 52.3888 29.8317 52.8695C23.502 63.3353 20.2019 75.2646 20.1938 87.3546L30.7208 87.3618V51.4402ZM20.2025 88.4773L30.7208 88.4845V123.358C25.6677 115.458 22.2991 106.537 20.9104 97.1437C20.484 94.2599 20.2493 91.3652 20.2025 88.4773ZM97.6995 88.5302L88.2208 88.5237V97.9529L97.6995 88.5302ZM87.0915 88.523V97.9408L77.6112 88.5165L87.0915 88.523Z" fill="#AC8A5C"/>
<path fill-rule="evenodd" clip-rule="evenodd" d="M83.8619 135.325C83.7645 136.05 83.8853 136.787 84.209 137.444C84.5327 138.101 85.0448 138.647 85.6808 139.015C86.3168 139.383 87.0481 139.555 87.7825 139.51C88.5168 139.465 89.2213 139.205 89.8071 138.762C90.3929 138.32 90.8337 137.715 91.0739 137.023C91.3141 136.332 91.3429 135.586 91.1567 134.878C90.9706 134.17 90.5778 133.533 90.0279 133.047C89.478 132.562 88.7956 132.248 88.0669 132.148C87.5807 132.08 87.086 132.109 86.6112 132.233C86.1363 132.356 85.6907 132.572 85.2999 132.867C84.9092 133.162 84.5809 133.531 84.3342 133.953C84.0874 134.375 83.9269 134.841 83.8619 135.325Z" fill="#AC8A5C"/>
<path fill-rule="evenodd" clip-rule="evenodd" d="M83.8559 135.337C83.7585 136.062 83.8793 136.8 84.203 137.456C84.5267 138.113 85.0388 138.66 85.6748 139.028C86.3108 139.395 87.0421 139.568 87.7765 139.523C88.5108 139.478 89.2153 139.218 89.8011 138.775C90.3869 138.332 90.8277 137.727 91.0679 137.036C91.308 136.345 91.3369 135.598 91.1507 134.891C90.9646 134.183 90.5718 133.546 90.0219 133.06C89.472 132.574 88.7896 132.261 88.0609 132.16C87.5747 132.093 87.08 132.122 86.6052 132.245C86.1303 132.369 85.6847 132.584 85.2939 132.88C84.9032 133.175 84.5749 133.544 84.3282 133.966C84.0814 134.387 83.9209 134.854 83.8559 135.337ZM81.5612 134.967C81.73 133.801 82.2418 132.711 83.0323 131.834C83.8227 130.956 84.8566 130.331 86.0037 130.036C87.1508 129.741 88.36 129.79 89.4791 130.177C90.5983 130.564 91.5774 131.271 92.2934 132.209C93.0093 133.148 93.4301 134.276 93.5028 135.451C93.5755 136.627 93.2968 137.798 92.7019 138.816C92.107 139.835 91.2223 140.656 90.1592 141.176C89.0961 141.696 87.9021 141.892 86.7273 141.739C85.9387 141.636 85.1784 141.379 84.4907 140.982C83.8029 140.585 83.2012 140.056 82.7206 139.426C82.24 138.796 81.8901 138.078 81.691 137.312C81.492 136.547 81.4479 135.749 81.5612 134.967ZM87.7845 81.6523C86.529 81.6015 85.2866 81.9218 84.2141 82.5727C83.1417 83.2236 82.2874 84.1759 81.7592 85.3093C81.231 86.4427 81.0526 87.7063 81.2466 88.9404C81.4406 90.1746 81.9982 91.3239 82.8491 92.243C83.6999 93.1622 84.8057 93.8101 86.0268 94.1047C87.2478 94.3994 88.5294 94.3276 89.7094 93.8985C90.8895 93.4693 91.9151 92.7021 92.6567 91.6937C93.3982 90.6853 93.8225 89.481 93.8757 88.233C93.9409 86.5587 93.3368 84.9268 92.1955 83.6937C91.0542 82.4607 89.4684 81.7268 87.7845 81.6523ZM100.88 131.587C100.679 133.046 100.918 134.531 101.567 135.855C102.216 137.179 103.245 138.281 104.525 139.023C105.804 139.765 107.276 140.113 108.755 140.023C110.233 139.932 111.652 139.408 112.83 138.516C114.009 137.624 114.894 136.404 115.375 135.011C115.856 133.619 115.91 132.115 115.531 130.692C115.152 129.268 114.357 127.989 113.246 127.015C112.135 126.041 110.758 125.417 109.29 125.221C107.326 124.96 105.338 125.483 103.761 126.676C102.185 127.869 101.149 129.635 100.88 131.587ZM65.1978 131.587C65.0689 132.523 65.2221 133.476 65.6378 134.325C66.0536 135.175 66.7134 135.882 67.5338 136.359C68.3541 136.836 69.2982 137.06 70.2468 137.004C71.1953 136.947 72.1057 136.612 72.8628 136.041C73.62 135.471 74.1899 134.69 74.5006 133.797C74.8113 132.904 74.8488 131.94 74.6084 131.026C74.3679 130.112 73.8603 129.29 73.1498 128.662C72.4392 128.035 71.5575 127.632 70.6162 127.502C69.9906 127.417 69.3541 127.454 68.7431 127.613C68.1321 127.772 67.5586 128.049 67.0553 128.428C66.5521 128.808 66.129 129.282 65.8103 129.824C65.4916 130.366 65.2834 130.965 65.1978 131.587ZM53.1836 123.597C53.086 124.373 53.2209 125.161 53.5714 125.861C53.9219 126.562 54.4725 127.144 55.1541 127.535C55.8358 127.926 56.6183 128.108 57.4038 128.059C58.1893 128.01 58.9427 127.732 59.5699 127.26C60.1972 126.787 60.6702 126.141 60.93 125.403C61.1897 124.664 61.2246 123.866 61.0302 123.108C60.8359 122.35 60.4209 121.665 59.8372 121.141C59.2536 120.616 58.5272 120.274 57.749 120.157C56.6993 120.014 55.6354 120.291 54.7908 120.927C53.9461 121.563 53.3897 122.506 53.2436 123.549L53.1836 123.597ZM48.7743 116.431C49.4122 116.521 50.0627 116.42 50.6428 116.142C51.2229 115.863 51.7063 115.419 52.0315 114.866C52.3567 114.313 52.5088 113.676 52.4685 113.037C52.4283 112.398 52.1974 111.785 51.8054 111.276C51.4134 110.768 50.8779 110.387 50.2674 110.183C49.6568 109.978 48.9988 109.959 48.3772 110.127C47.7556 110.296 47.1986 110.645 46.7772 111.129C46.3558 111.614 46.0891 112.212 46.0111 112.848C45.9114 113.685 46.1444 114.528 46.6605 115.198C47.1766 115.867 47.935 116.309 48.7743 116.431ZM45.4945 99.4716C45.0356 99.4099 44.5686 99.4847 44.1525 99.6866C43.7364 99.8885 43.3898 100.209 43.1565 100.606C42.9232 101.004 42.8137 101.461 42.8418 101.921C42.8698 102.38 43.0342 102.821 43.3142 103.188C43.5941 103.554 43.9771 103.83 44.4148 103.981C44.8524 104.131 45.325 104.149 45.773 104.033C46.221 103.916 46.6242 103.67 46.9317 103.326C47.2392 102.982 47.4373 102.555 47.5008 102.099C47.5705 101.489 47.4008 100.875 47.0272 100.386C46.6535 99.8965 46.1046 99.5691 45.4945 99.4716ZM92.5902 151.831C97.0177 152.246 101.475 152.246 105.902 151.831L110.636 151.21L105.998 152.285C101.547 153.178 97.0099 153.578 92.4701 153.479C85.3425 153.168 78.3174 151.674 71.6855 149.06C62.9342 145.653 55.1138 140.244 48.8584 133.271C41.2923 124.97 36.1568 114.768 34.0089 103.771C31.6182 91.0673 34.1735 77.9351 41.1573 67.0338C44.8814 61.1898 49.7482 56.1488 55.469 52.2098C61.1898 48.2708 67.648 45.5139 74.4608 44.1028C81.6734 42.6717 89.1343 43.0979 96.1346 45.3409C103.135 47.5839 109.442 51.5691 114.456 56.9179C119.435 62.3609 122.948 68.9673 124.668 76.1226C125.477 79.7706 125.736 83.518 125.437 87.2418C125.112 90.9492 124.182 94.5794 122.686 97.9907C116.871 111.606 102.13 120.635 87.6524 118.402C80.6159 117.328 74.2474 113.651 69.8233 108.107C68.729 106.827 67.7969 105.42 67.048 103.915C66.1857 102.484 65.5305 100.94 65.1017 99.3283L64.3448 96.9397V96.7963C64.3448 96.5933 64.3448 97.0352 64.2487 96.3186V96.0559V95.5184L64.1285 94.4435L63.7561 92.2699L63.9243 89.5826C64.2092 86.3816 65.1748 83.2773 66.7572 80.4751C68.3396 77.6729 70.5026 75.2367 73.1031 73.3279C74.3798 72.4996 75.6992 71.7382 77.0558 71.0467C78.4375 70.4615 79.8912 70.0913 81.2848 69.6374L81.5491 69.5538H81.6693C81.8037 69.5211 81.9402 69.4972 82.0778 69.4822H82.5463L83.5075 69.3747C84.1572 69.2904 84.8108 69.2386 85.4658 69.2194C87.0098 69.2289 88.547 69.4254 90.0432 69.8046C92.6923 70.462 95.1596 71.7013 97.2636 73.4312C99.3677 75.1611 101.055 77.3377 102.202 79.8011C102.67 80.9954 102.995 82.1898 103.403 83.3841C103.61 84.5666 103.691 85.7676 103.643 86.9671C103.617 88.2189 103.398 89.4595 102.995 90.6456C102.666 91.7549 102.189 92.8154 101.577 93.7986C100.488 95.5977 99.0012 97.1272 97.23 98.2714C95.4587 99.4156 93.449 100.145 91.3528 100.403C90.9202 100.403 90.4997 100.499 90.0432 100.511L88.5054 100.332C87.5935 100.211 86.6986 99.9864 85.8382 99.6627C84.3 99.029 82.9156 98.0762 81.7774 96.868C80.8344 95.863 80.1073 94.6774 79.6405 93.3838C79.1736 92.0901 78.9769 90.7155 79.0622 89.3438C79.2445 87.3397 80.1289 85.4629 81.5612 84.041C82.7547 82.9488 84.218 82.1905 85.8022 81.8434C84.3049 82.3298 82.9625 83.1988 81.9096 84.3634C80.7572 85.7672 80.1214 87.52 80.1074 89.3318C80.1926 91.7379 81.2235 94.0149 82.9788 95.6737C84.024 96.6738 85.3001 97.4036 86.6952 97.7993C88.0902 98.1949 89.5616 98.2442 90.9803 97.9429C93.4814 97.4463 95.7323 96.1043 97.3508 94.1448C98.9693 92.1854 99.8555 89.7293 99.8588 87.194C99.8259 86.2322 99.6971 85.2761 99.4744 84.3395C99.0899 83.4438 98.7896 82.5242 98.3691 81.6404C97.4032 79.8603 96.0556 78.3129 94.4218 77.1076C92.7879 75.9024 90.9076 75.0687 88.9139 74.6655C87.9664 74.4909 87.006 74.395 86.0425 74.3789C85.4255 74.4278 84.8117 74.5115 84.2043 74.6297L83.2552 74.785H82.9308H82.8347L82.6424 74.8686C81.6092 75.2985 80.5279 75.609 79.5067 76.0629C78.4855 76.5167 77.5604 77.2572 76.6714 77.9141C74.8797 79.3658 73.4063 81.1671 72.3421 83.2069C71.2779 85.2466 70.6456 87.4816 70.484 89.7737L70.3399 91.3502L70.6522 93.4642L70.8084 94.5271L70.9045 95.0646C70.9045 95.0646 70.9045 95.1362 70.9045 95.0646V95.1721L71.5653 96.9277C71.9094 98.137 72.449 99.2826 73.1632 100.32C73.7496 101.44 74.485 102.476 75.3498 103.401C78.7257 107.33 83.4221 109.906 88.5655 110.65C89.7669 110.65 90.8241 110.877 92.1697 110.83L96.4348 110.221C99.109 109.51 101.669 108.428 104.04 107.008C108.806 104.029 112.538 99.6688 114.732 94.5152C115.856 91.9339 116.542 89.1857 116.763 86.3818C116.966 83.5785 116.748 80.7607 116.114 78.0216C114.687 72.3263 111.845 67.0781 107.848 62.7581C103.86 58.4376 98.8224 55.2077 93.2182 53.3779C87.614 51.548 81.631 51.1796 75.8424 52.3078C64.2651 54.622 54.0752 61.3866 47.4888 71.1303C41.2959 80.36 38.7304 91.5301 40.2803 102.517C41.8593 112.58 46.0731 122.054 52.4987 129.987C58.0612 136.805 65.0622 142.325 73.007 146.158C79.171 149.121 85.79 151.038 92.5902 151.831Z" fill="white"/>
<path d="M299.284 53V64.5542H300.495V53H299.284Z" fill="white"/>
<path d="M266.089 53.1982V54.5819H267.464V53.1982H266.089Z" fill="white"/>
<path d="M266.199 56.3669V64.5517H267.409V56.3669H266.199Z" fill="white"/>
<path d="M205.116 53.482V64.5519H206.361V53.482H205.116Z" fill="white"/>
<path d="M224.85 76.3351H227.821L231.563 88.0276L235.414 76.2659H237.739L241.598 88.0276L245.339 76.3351H248.228L242.726 92.248H240.353L236.501 80.9222L232.656 92.248H230.269L224.85 76.3351Z" fill="white"/>
<path d="M198.795 87.9028L197 89.7501C197.559 90.5616 198.312 91.2193 199.189 91.6628C200.066 92.1064 201.04 92.3218 202.021 92.2892C202.715 92.3298 203.41 92.2281 204.064 91.9902C204.718 91.7524 205.317 91.3833 205.824 90.9055C206.334 90.3407 206.725 89.6782 206.975 88.9578C207.224 88.2374 207.326 87.4739 207.276 86.7128V76.3347H204.456V86.6574C204.508 87.4834 204.264 88.3008 203.768 88.9613C203.544 89.2212 203.264 89.4266 202.949 89.562C202.635 89.6974 202.294 89.7594 201.952 89.7431C201.359 89.7544 200.774 89.596 200.267 89.2865C199.703 88.9114 199.205 88.4437 198.795 87.9028Z" fill="white"/>
<path d="M211.052 76.3347V92.1107L222.786 92.1038V89.6474H213.803V85.3921H221.665V82.9357H213.803V78.7842H222.676V76.3347H211.052Z" fill="white"/>
<path d="M251.068 76.3347V92.1107L262.761 92.1038V89.6474H253.82V85.3921H261.681V82.9357H253.82V78.7842H262.692V76.3347H251.068Z" fill="white"/>
<path d="M266.034 92.1107V76.3347H268.786V89.5782H277.039V92.1107H266.034Z" fill="white"/>
<path d="M279.893 76.3347V92.1107H290.898V89.5782H282.644V76.3347H279.893Z" fill="white"/>
<path d="M293.745 92.1107V76.3347H305.404V78.7842H296.531V82.9357H304.392V85.3921H296.496V89.6474H305.479V92.1038L293.745 92.1107Z" fill="white"/>
<path fill-rule="evenodd" clip-rule="evenodd" d="M308.746 76.3365V92.1111L311.449 92.1319V86.5969H314.888L318.781 92.1319H322.034L317.797 86.1541C318.865 85.886 319.825 85.2943 320.548 84.4591C321.289 83.4618 321.642 82.2271 321.542 80.9864C321.442 79.7458 320.895 78.5845 320.005 77.7203C318.794 76.7453 317.269 76.2527 315.72 76.3365H308.746ZM315.534 84.1546H311.497V78.8273H315.514C316.366 78.7806 317.209 79.0244 317.907 79.5191C318.192 79.7491 318.418 80.0444 318.566 80.3802C318.715 80.716 318.781 81.0826 318.76 81.4494C318.784 81.8307 318.717 82.2123 318.566 82.5625C318.414 82.9127 318.181 83.2213 317.886 83.4628C317.208 83.9643 316.375 84.2093 315.534 84.1546Z" fill="white"/>
<path d="M322.765 76.3347H326.039L330.414 83.3163L334.843 76.3347H338L331.769 85.828V92.1107H329.017V85.8833L322.765 76.3347Z" fill="white"/>
<path d="M199.152 113.372L197.495 115.35C199.279 116.985 201.616 117.873 204.029 117.834C205.485 117.905 206.92 117.457 208.08 116.568C208.593 116.157 209 115.628 209.27 115.027C209.539 114.425 209.661 113.767 209.628 113.109C209.659 112.554 209.566 112 209.356 111.487C209.147 110.973 208.826 110.513 208.417 110.141C207.283 109.294 205.973 108.717 204.586 108.452C203.801 108.285 203.03 108.054 202.282 107.76C201.86 107.606 201.482 107.349 201.181 107.013C200.926 106.638 200.822 106.179 200.893 105.73C200.963 105.281 201.202 104.876 201.56 104.599C202.107 104.217 202.765 104.03 203.43 104.066C204.986 104.128 206.478 104.699 207.681 105.692L209.16 103.616C207.554 102.304 205.54 101.603 203.472 101.637C202.077 101.58 200.709 102.033 199.62 102.911C199.137 103.31 198.75 103.814 198.489 104.386C198.228 104.958 198.1 105.582 198.114 106.211C198.096 106.85 198.211 107.486 198.451 108.079C198.677 108.603 199.038 109.056 199.496 109.393C199.989 109.758 200.528 110.056 201.099 110.279C201.83 110.558 202.579 110.79 203.341 110.971C204.1 111.129 204.841 111.361 205.556 111.663C205.962 111.818 206.322 112.075 206.601 112.41C206.791 112.701 206.887 113.044 206.876 113.392C206.884 113.682 206.82 113.97 206.689 114.229C206.558 114.487 206.365 114.709 206.127 114.873C205.525 115.267 204.815 115.459 204.098 115.419C203.208 115.429 202.325 115.255 201.505 114.907C200.647 114.521 199.853 114.002 199.152 113.372Z" fill="white"/>
<path d="M212.179 109.815C212.174 108.73 212.377 107.654 212.778 106.647C213.156 105.683 213.717 104.802 214.428 104.052C215.157 103.299 216.033 102.705 217.001 102.309C218.031 101.876 219.138 101.658 220.254 101.666C221.431 101.638 222.601 101.852 223.693 102.295C224.682 102.736 225.586 103.349 226.362 104.108L224.601 106.183C223.988 105.6 223.292 105.11 222.538 104.73C221.814 104.385 221.021 104.21 220.22 104.218C219.281 104.206 218.359 104.468 217.565 104.972C216.773 105.468 216.131 106.171 215.708 107.006C215.254 107.882 215.018 108.855 215.02 109.843C214.985 111.315 215.514 112.744 216.499 113.835C216.958 114.363 217.526 114.783 218.165 115.067C218.803 115.35 219.495 115.489 220.192 115.474C221.014 115.492 221.829 115.317 222.572 114.962C223.351 114.554 224.067 114.035 224.697 113.42L226.472 115.225C225.947 115.781 225.366 116.279 224.738 116.713C224.102 117.128 223.406 117.443 222.675 117.647C221.83 117.89 220.954 118.009 220.075 117.999C218.647 118.015 217.241 117.645 216.003 116.927C214.801 116.224 213.812 115.205 213.142 113.98C212.468 112.699 212.136 111.264 212.179 109.815Z" fill="white"/>
<path d="M229.389 101.894V117.663L232.14 117.649V111.007H239.623V117.649H242.375V101.88H239.623V108.433H232.14V101.894H229.389Z" fill="white"/>
<path fill-rule="evenodd" clip-rule="evenodd" d="M245.711 109.813C245.707 107.673 246.531 105.616 248.008 104.077C248.752 103.318 249.641 102.718 250.622 102.313C252.739 101.451 255.107 101.451 257.225 102.313C258.199 102.713 259.083 103.306 259.824 104.057C260.543 104.805 261.11 105.686 261.496 106.651C262.307 108.678 262.307 110.941 261.496 112.968C261.106 113.936 260.534 114.82 259.811 115.569C259.066 116.325 258.177 116.923 257.197 117.327C256.149 117.764 255.024 117.985 253.889 117.977C252.404 117.998 250.941 117.618 249.652 116.877C248.434 116.172 247.43 115.146 246.749 113.909C246.055 112.658 245.697 111.246 245.711 109.813ZM248.6 109.813C248.592 110.797 248.828 111.767 249.287 112.636C249.728 113.491 250.396 114.206 251.217 114.702C252.038 115.198 252.979 115.455 253.937 115.445C254.887 115.455 255.821 115.203 256.638 114.715C257.454 114.227 258.121 113.522 258.566 112.677C259.021 111.802 259.258 110.828 259.254 109.841C259.261 108.859 259.024 107.891 258.566 107.025C258.129 106.17 257.467 105.452 256.654 104.949C255.822 104.449 254.871 104.184 253.903 104.184C252.934 104.184 251.983 104.449 251.151 104.949C250.349 105.437 249.698 106.142 249.274 106.983C248.824 107.857 248.592 108.829 248.6 109.813Z" fill="white"/>
<path fill-rule="evenodd" clip-rule="evenodd" d="M267.031 104.079C265.553 105.618 264.729 107.675 264.734 109.814C264.718 111.247 265.073 112.658 265.765 113.91C266.447 115.149 267.453 116.176 268.675 116.878C269.961 117.62 271.422 118 272.905 117.978C274.04 117.987 275.165 117.766 276.213 117.328C277.194 116.926 278.083 116.328 278.827 115.571C280.305 114.027 281.129 111.965 281.124 109.821C281.13 108.735 280.924 107.659 280.519 106.652C280.133 105.687 279.566 104.806 278.847 104.058C278.107 103.305 277.223 102.712 276.247 102.314C274.13 101.452 271.762 101.452 269.645 102.314C268.664 102.719 267.775 103.32 267.031 104.079ZM268.31 112.637C267.854 111.767 267.618 110.798 267.622 109.814C267.615 108.819 267.851 107.838 268.31 106.957C268.735 106.114 269.389 105.409 270.195 104.923C271.021 104.41 271.976 104.146 272.946 104.162C273.916 104.152 274.869 104.415 275.697 104.923C276.507 105.428 277.166 106.146 277.602 106.998C278.061 107.865 278.297 108.833 278.29 109.814C278.294 110.802 278.058 111.776 277.602 112.651C277.172 113.493 276.517 114.197 275.711 114.685C274.884 115.197 273.93 115.461 272.96 115.446C272.002 115.457 271.061 115.2 270.24 114.704C269.419 114.208 268.751 113.492 268.31 112.637Z" fill="white"/>
<path d="M284.452 117.661V101.894H287.204V115.136H295.457V117.661H284.452Z" fill="white"/>
<path d="M209.38 64.5542V56.3694H210.591V57.7946C210.86 57.301 211.26 56.8911 211.744 56.6093C212.229 56.3276 212.782 56.1848 213.342 56.1964C213.763 56.1747 214.185 56.243 214.579 56.3968C214.972 56.5506 215.329 56.7865 215.625 57.0889C216.201 57.7453 216.5 58.6016 216.458 59.4759V64.5542H215.302V59.7734C215.338 59.1159 215.127 58.4688 214.711 57.9607C214.498 57.7373 214.239 57.563 213.953 57.4495C213.667 57.3361 213.36 57.2862 213.053 57.3034C212.73 57.2915 212.408 57.3468 212.108 57.4658C211.807 57.5849 211.534 57.7651 211.306 57.9953C211.073 58.2416 210.892 58.5329 210.773 58.8516C210.655 59.1702 210.602 59.5097 210.618 59.8495V64.5334L209.38 64.5542Z" fill="white"/>
<path d="M220.116 64.149C220.587 64.5382 221.187 64.7335 221.795 64.6955C222.302 64.7074 222.804 64.5959 223.26 64.3704V63.3258C222.891 63.5079 222.487 63.6049 222.077 63.6095C221.889 63.639 221.698 63.6236 221.517 63.5645C221.337 63.5055 221.173 63.4044 221.039 63.2695C220.905 63.1346 220.804 62.9698 220.746 62.7884C220.687 62.6071 220.672 62.4143 220.701 62.2259V57.4457H223.287V56.3665H220.701V53.8969H219.49V56.3665H218.356V57.4457H219.49V62.3988C219.463 62.7187 219.505 63.0407 219.613 63.3428C219.721 63.6449 219.893 63.9199 220.116 64.149Z" fill="white"/>
<path fill-rule="evenodd" clip-rule="evenodd" d="M225.922 60.9638C225.967 61.7223 226.303 62.4338 226.858 62.9491C227.38 63.4376 228.071 63.703 228.784 63.6893C229.268 63.6894 229.747 63.5865 230.189 63.3874C230.631 63.1883 231.026 62.8975 231.349 62.5341L232.106 63.2258C231.694 63.7134 231.18 64.1038 230.601 64.3692C230.022 64.6347 229.392 64.7686 228.756 64.7616C228.219 64.7731 227.684 64.6728 227.187 64.4668C226.69 64.2609 226.241 63.9538 225.867 63.5648C225.473 63.1598 225.165 62.6776 224.962 62.1482C224.76 61.6187 224.668 61.0532 224.691 60.4865C224.666 59.3695 225.067 58.2853 225.812 57.4565C226.157 57.0561 226.586 56.737 227.067 56.5218C227.549 56.3066 228.071 56.2006 228.598 56.2113C229.12 56.1941 229.639 56.2966 230.116 56.5112C230.592 56.7257 231.014 57.0466 231.349 57.4496C232.047 58.3261 232.409 59.4262 232.367 60.5487C232.374 60.6916 232.374 60.8347 232.367 60.9776L225.922 60.9638ZM231.163 59.9815H225.924C225.98 59.2446 226.286 58.5489 226.789 58.0099C227.014 57.762 227.288 57.5647 227.594 57.4312C227.9 57.2976 228.23 57.2308 228.564 57.2351C228.906 57.2185 229.247 57.2795 229.563 57.4137C229.878 57.5478 230.16 57.7516 230.386 58.0099C230.842 58.5705 231.113 59.2593 231.163 59.9815Z" fill="white"/>
<path d="M234.513 56.3696V64.5544H235.717V61.2957C235.653 60.2899 235.978 59.2982 236.624 58.5282C236.92 58.2054 237.281 57.9506 237.684 57.781C238.086 57.6115 238.52 57.5312 238.956 57.5458H239.046V56.2312C238.338 56.1861 237.637 56.3918 237.065 56.8124C236.477 57.2468 236.016 57.8323 235.73 58.5075V56.3696H234.513Z" fill="white"/>
<path d="M240.889 64.5557V56.3697H242.127V57.7952C242.397 57.3015 242.796 56.8915 243.281 56.6097C243.766 56.3279 244.319 56.1851 244.879 56.1967C245.3 56.1741 245.722 56.242 246.116 56.3959C246.509 56.5498 246.866 56.7862 247.162 57.0894C247.738 57.7458 248.036 58.6022 247.994 59.4767V64.5557H246.784V59.7742C246.823 59.1162 246.611 58.468 246.192 57.9612C245.98 57.7371 245.722 57.5622 245.435 57.4487C245.149 57.3352 244.842 57.2858 244.535 57.3039C244.212 57.2928 243.89 57.3484 243.59 57.4675C243.289 57.5865 243.016 57.7663 242.788 57.9958C242.556 58.2431 242.375 58.5346 242.257 58.8531C242.139 59.1716 242.086 59.5107 242.1 59.8503V64.5349L240.889 64.5557Z" fill="white"/>
<path fill-rule="evenodd" clip-rule="evenodd" d="M250.87 64.0428C251.485 64.5079 252.239 64.7515 253.009 64.7347C253.575 64.7578 254.138 64.6428 254.651 64.3994C255.164 64.1561 255.61 63.7916 255.952 63.3371V64.5479H257.149V59.5457C257.177 59.1082 257.115 58.6697 256.969 58.2569C256.822 57.8441 256.593 57.4658 256.296 57.1449C255.941 56.8242 255.526 56.5787 255.074 56.423C254.623 56.2673 254.145 56.2046 253.669 56.2386C252.645 56.2512 251.636 56.4873 250.711 56.9304L251.069 57.9267C251.84 57.5619 252.679 57.3662 253.531 57.3525C254.174 57.3126 254.807 57.5177 255.306 57.9267C255.525 58.1375 255.696 58.3944 255.805 58.679C255.914 58.9636 255.96 59.269 255.939 59.5734V59.8225C255.128 59.5942 254.291 59.4779 253.449 59.4765C252.553 59.4241 251.664 59.667 250.918 60.1684C250.608 60.3922 250.359 60.6905 250.193 61.0362C250.027 61.3819 249.95 61.7638 249.969 62.1471C249.953 62.5132 250.027 62.8776 250.184 63.2082C250.341 63.5387 250.576 63.8254 250.87 64.0428ZM255.168 63.1296C254.616 63.5527 253.936 63.7725 253.242 63.7523C252.735 63.7593 252.239 63.6043 251.826 63.3095C251.637 63.1708 251.483 62.9891 251.377 62.7793C251.271 62.5695 251.216 62.3375 251.216 62.1022C251.216 61.8668 251.271 61.6348 251.377 61.425C251.483 61.2152 251.637 61.0335 251.826 60.8948C252.346 60.5624 252.957 60.4026 253.573 60.4382C254.379 60.4406 255.18 60.5595 255.952 60.7911V61.5521C255.957 61.8591 255.889 62.1628 255.752 62.4374C255.616 62.712 255.415 62.9494 255.168 63.1296Z" fill="white"/>
<path d="M262.424 64.6969C261.815 64.7303 261.215 64.5301 260.746 64.1365C260.525 63.9059 260.355 63.6305 260.249 63.3286C260.142 63.0267 260.1 62.7054 260.127 62.3861V57.4461H258.992V56.3668H260.127V53.8969H261.338V56.3668H263.917V57.4461H261.338V62.2269C261.308 62.4154 261.324 62.6082 261.382 62.7896C261.441 62.9709 261.542 63.1358 261.676 63.2707C261.81 63.4056 261.974 63.5067 262.154 63.5658C262.334 63.6248 262.526 63.6402 262.713 63.6107C263.122 63.6072 263.524 63.5102 263.89 63.327V64.3717C263.434 64.5975 262.932 64.7091 262.424 64.6969Z" fill="white"/>
<path fill-rule="evenodd" clip-rule="evenodd" d="M276.95 63.4605C276.556 63.8687 276.083 64.1912 275.56 64.4078C275.037 64.6244 274.476 64.7306 273.91 64.7197C273.349 64.7344 272.791 64.6305 272.272 64.4148C271.753 64.1991 271.285 63.8764 270.898 63.4674C270.12 62.6564 269.686 61.5738 269.686 60.4474C269.686 59.321 270.12 58.2385 270.898 57.4274C271.702 56.623 272.79 56.1714 273.924 56.1714C275.058 56.1714 276.146 56.623 276.95 57.4274C277.731 58.2368 278.167 59.32 278.167 60.4474C278.167 61.5749 277.731 62.658 276.95 63.4674V63.4605ZM273.945 63.6266C274.342 63.6462 274.74 63.5798 275.11 63.4318C275.48 63.2838 275.815 63.0577 276.09 62.7686C276.637 62.1412 276.935 61.3338 276.929 60.4997C276.923 59.6655 276.612 58.8628 276.056 58.2438C275.786 57.9428 275.454 57.7037 275.084 57.5425C274.714 57.3814 274.313 57.3021 273.91 57.3098C273.508 57.2976 273.108 57.3742 272.738 57.5344C272.369 57.6946 272.039 57.9344 271.771 58.2369C271.213 58.8568 270.914 59.6701 270.939 60.5062C270.917 61.3429 271.227 62.154 271.799 62.7617C272.073 63.0545 272.407 63.2854 272.777 63.4392C273.146 63.5931 273.544 63.6663 273.945 63.6542V63.6266Z" fill="white"/>
<path d="M280.36 56.3697V64.5557L281.578 64.5349V59.8503C281.563 59.5106 281.617 59.1716 281.735 58.8531C281.853 58.5346 282.034 58.2431 282.265 57.9958C282.494 57.7663 282.767 57.5865 283.068 57.4674C283.368 57.3484 283.69 57.2927 284.012 57.3038C284.321 57.2866 284.629 57.3364 284.916 57.4498C285.203 57.5632 285.463 57.7377 285.677 57.9612C286.091 58.4704 286.3 59.1175 286.262 59.7742V64.5557H287.479V59.4766C287.519 58.6013 287.218 57.7447 286.64 57.0893C286.345 56.7863 285.99 56.55 285.597 56.396C285.205 56.2421 284.784 56.1742 284.363 56.1967C283.798 56.1787 283.238 56.3184 282.746 56.6005C282.255 56.8827 281.85 57.2961 281.578 57.7951V56.3697H280.36Z" fill="white"/>
<path fill-rule="evenodd" clip-rule="evenodd" d="M292.48 64.7339C291.71 64.7507 290.956 64.507 290.34 64.0419C290.049 63.8237 289.814 63.5367 289.658 63.2061C289.503 62.8755 289.43 62.5115 289.446 62.1459C289.427 61.7632 289.503 61.3816 289.667 61.0359C289.832 60.6903 290.08 60.3916 290.389 60.1669C291.135 59.6655 292.024 59.4226 292.92 59.475C293.761 59.4759 294.599 59.5923 295.41 59.821V59.5719C295.431 59.2674 295.385 58.962 295.276 58.6774C295.167 58.3927 294.996 58.1358 294.777 57.925C294.278 57.5159 293.645 57.3108 293.002 57.3507C292.147 57.3662 291.305 57.5668 290.533 57.9388L290.169 56.9424C291.093 56.4992 292.102 56.2631 293.126 56.2504C293.605 56.2127 294.086 56.2729 294.542 56.4275C294.997 56.5821 295.416 56.8279 295.774 57.15C296.071 57.4709 296.3 57.8493 296.446 58.2621C296.593 58.675 296.655 59.1136 296.627 59.5511V64.554H295.43V63.3361C295.087 63.7916 294.64 64.1567 294.126 64.4002C293.612 64.6436 293.047 64.7581 292.48 64.7339ZM292.72 63.7513C293.412 63.7728 294.09 63.5527 294.639 63.1285C294.886 62.9483 295.087 62.7109 295.223 62.4362C295.36 62.1616 295.428 61.8579 295.423 61.5509V60.7897C294.653 60.5585 293.854 60.4397 293.05 60.4368C292.435 60.4003 291.823 60.5601 291.303 60.8935C291.112 61.0289 290.955 61.2079 290.845 61.4159C290.736 61.6239 290.677 61.855 290.673 62.0904C290.669 62.3258 290.72 62.5588 290.822 62.7705C290.925 62.9822 291.075 63.1665 291.262 63.3084C291.687 63.6114 292.199 63.7668 292.72 63.7513Z" fill="white"/>
</svg>
